<svg xmlns="http://www.w3.org/2000/svg" width="16" height="16" viewBox="0 0 16 16" fill="currentColor">
  <path d="M11.81 0.97a.5.5 0 0 1 .71 0l2.51 2.51a.5.5 0 0 1 0 .71l-.89.89-3.22-3.22.89-.89Z"/>
  <path d="M10.2 2.56l3.23 3.23-4.12 4.12a1.5 1.5 0 0 1-1.06.44H5.63l-1.96 1.96a.5.5 0 1 1-.7-.71l2.1-2.1a.5.5 0 0 1 .35-.14h2.83a.5.5 0 0 0 .35-.15l3.42-3.42-2.51-2.52-3.42 3.42a.5.5 0 0 0-.15.35v1.63a.5.5 0 0 1-.15.35L4.2 10.99a.5.5 0 1 1-.7-.71l1.37-1.37V7.14c0-.4.16-.78.44-1.06l4.89-4.89Z"/>
  <path d="M4.99 10.08 7.9 13l-.58 2.01a.5.5 0 0 1-.48.36H3.16a.5.5 0 0 1-.48-.64l.58-2.01 1.73-1.73Zm.41 1.42-1.3 1.3-.29 1h2.65l.29-1-1.35-1.3Z"/>
  <path d="M3.86 13.9h2.29a.35.35 0 1 1 0 .7H3.86a.35.35 0 1 1 0-.7Z"/>
</svg>