<svg width="20" height="20" viewBox="0 0 20 20" fill="none" xmlns="http://www.w3.org/2000/svg">
<path d="M2.5 5C2.22386 5 2 5.22386 2 5.5V8.5C2 8.77614 2.22386 9 2.5 9H17.5C17.7761 9 18 8.77614 18 8.5V5.5C18 5.22386 17.7761 5 17.5 5H2.5ZM3 6H17V8H3V6ZM2.5 11C2.22386 11 2 11.2239 2 11.5V14.5C2 14.7761 2.22386 15 2.5 15H17.5C17.7761 15 18 14.7761 18 14.5V11.5C18 11.2239 17.7761 11 17.5 11H2.5ZM3 12H17V14H3V12ZM14.5 6.5C14.7761 6.5 15 6.72386 15 7C15 7.27614 14.7761 7.5 14.5 7.5C14.2239 7.5 14 7.27614 14 7C14 6.72386 14.2239 6.5 14.5 6.5ZM14.5 12.5C14.7761 12.5 15 12.7239 15 13C15 13.2761 14.7761 13.5 14.5 13.5C14.2239 13.5 14 13.2761 14 13C14 12.7239 14.2239 12.5 14.5 12.5Z" fill="#212121"/>
</svg>
