<svg width="20" height="20" viewBox="0 0 20 20" fill="none" xmlns="http://www.w3.org/2000/svg">
<path d="M10 2C7.79086 2 6 3.79086 6 6H7C7 4.34315 8.34315 3 10 3C11.6569 3 13 4.34315 13 6V8H5.5C4.67157 8 4 8.67157 4 9.5V16.5C4 17.3284 4.67157 18 5.5 18H14.5C15.3284 18 16 17.3284 16 16.5V9.5C16 8.67157 15.3284 8 14.5 8H14V6C14 3.79086 12.2091 2 10 2ZM5.5 9H14.5C14.7761 9 15 9.22386 15 9.5V16.5C15 16.7761 14.7761 17 14.5 17H5.5C5.22386 17 5 16.7761 5 16.5V9.5C5 9.22386 5.22386 9 5.5 9Z" fill="#212121"/>
</svg>
