<svg xmlns="http://www.w3.org/2000/svg" width="16" height="16" viewBox="0 0 16 16">
  <!-- rename.svg - duotone -->
  <defs>
    <clipPath id="clip_ad9b9922">
      <rect x="1.8" y="6.7" width="7.8" height="2.6"/>
    </clipPath>
  </defs>
  <path fill="#000000" d="m13.5,15h-1.5V1h1.5c.28,0,.5-.22.5-.5S13.78,0,13.5,0h-4C9.22,0,9,.22,9,.5s.22.5.5.5h1.5v14h-1.5c-.28,0-.5.22-.5.5s.22.5.5.5h4c.28,0,.5-.22.5-.5s-.22-.5-.5-.5ZM3,7c-.55,0-1,.45-1,1s.45,1,1,1h5c.55,0,1-.45,1-1s-.45-1-1-1H3Zm7,6H2.5c-.83,0-1.5-.67-1.5-1.5v-7c0-.83.67-1.5,1.5-1.5h7.5v-1H2.5c-1.38,0-2.5,1.12-2.5,2.5v7c0,1.38,1.12,2.5,2.5,2.5h7.5v-1Zm3.5-11h-.5v1h.5c.83,0,1.5.67,1.5,1.5v7c0,.83-.67,1.5-1.5,1.5h-.5v1h.5c1.38,0,2.5-1.12,2.5-2.5v-7c0-1.38-1.12-2.5-2.5-2.5Z"/>
  <path fill="#7AB8FF" d="m13.5,15h-1.5V1h1.5c.28,0,.5-.22.5-.5S13.78,0,13.5,0h-4C9.22,0,9,.22,9,.5s.22.5.5.5h1.5v14h-1.5c-.28,0-.5.22-.5.5s.22.5.5.5h4c.28,0,.5-.22.5-.5s-.22-.5-.5-.5ZM3,7c-.55,0-1,.45-1,1s.45,1,1,1h5c.55,0,1-.45,1-1s-.45-1-1-1H3Zm7,6H2.5c-.83,0-1.5-.67-1.5-1.5v-7c0-.83.67-1.5,1.5-1.5h7.5v-1H2.5c-1.38,0-2.5,1.12-2.5,2.5v7c0,1.38,1.12,2.5,2.5,2.5h7.5v-1Zm3.5-11h-.5v1h.5c.83,0,1.5.67,1.5,1.5v7c0,.83-.67,1.5-1.5,1.5h-.5v1h.5c1.38,0,2.5-1.12,2.5-2.5v-7c0-1.38-1.12-2.5-2.5-2.5Z" clip-path="url(#clip_ad9b9922)"/>
</svg>
