<svg width="20" height="20" viewBox="0 0 20 20" fill="none" xmlns="http://www.w3.org/2000/svg">
<path fill-rule="evenodd" clip-rule="evenodd" d="M5 3C3.89543 3 3 3.89543 3 5V10C3 11.1046 3.89543 12 5 12H8.25V13H6.5C6.22386 13 6 13.2239 6 13.5C6 13.7761 6.22386 14 6.5 14H10.0798C10.2672 15.6878 11.6985 17 13.4363 17C14.1942 17 14.9072 16.7502 15.484 16.3191L16.6464 17.4816C16.8417 17.6768 17.1583 17.6768 17.3536 17.4816C17.5488 17.2863 17.5488 16.9697 17.3536 16.7745L16.1912 15.612C16.622 15.0352 16.8718 14.3223 16.8718 13.5643C16.8718 11.6545 15.3236 10.1062 13.4138 10.1062C11.6762 10.1062 10.2452 11.4174 10.0575 13.1049H9.25V12H12C13.1046 12 14 11.1046 14 10V5C14 3.89543 13.1046 3 12 3H5ZM4 5C4 4.44772 4.44772 4 5 4H12C12.5523 4 13 4.44772 13 5V10C13 10.5523 12.5523 11 12 11H5C4.44772 11 4 10.5523 4 10V5ZM11.0558 13.5643C11.0558 12.2068 12.1563 11.1062 13.5138 11.1062C14.8713 11.1062 15.9718 12.2068 15.9718 13.5643C15.9718 14.9218 14.8713 16.0224 13.5138 16.0224C12.1563 16.0224 11.0558 14.9218 11.0558 13.5643Z" fill="#212121"/>
</svg>
